<svg id="Layer_1" data-name="Layer 1" xmlns="http://www.w3.org/2000/svg" viewBox="0 0 239 27"><defs><style>.cls-1{fill:#f8f8f8;}.cls-2{fill:#ff57b2;}</style></defs><path class="cls-1" d="M68.34,11.64c-.32-2.41-2.27-3.9-5.57-3.9s-5.56,1.55-5.55,4.07c0,2,1.23,3.23,3.78,3.74l2.27.46c1.14.23,1.66.64,1.68,1.3s-.86,1.33-2.13,1.33A2.12,2.12,0,0,1,60.44,17l-3.57.19c.34,2.5,2.47,4.05,5.94,4.05s5.82-1.73,5.83-4.32c0-1.89-1.25-3-3.78-3.54l-2.37-.48c-1.22-.26-1.67-.68-1.67-1.31,0-.79.88-1.3,2-1.3A2,2,0,0,1,65,11.85Z"/><path class="cls-1" d="M70.93,25.91h3.63v-7h.11a3.86,3.86,0,0,0,3.71,2.31c3,0,5.31-2.36,5.31-6.74s-2.43-6.73-5.3-6.73a3.84,3.84,0,0,0-3.72,2.37H74.5V7.91H70.93Zm3.55-11.46c0-2.33,1-3.82,2.75-3.82S80,12.19,80,14.45s-1,3.87-2.76,3.87S74.48,16.79,74.48,14.45Z"/><path class="cls-1" d="M89.85,21.25a4,4,0,0,0,3.82-2.07h.1V21h3.45V12.17c0-3.12-2.64-4.43-5.56-4.43-3.14,0-5.2,1.5-5.7,3.88l3.36.28a2.18,2.18,0,0,1,2.32-1.51c1.24,0,2,.62,2,1.7v.05c0,.84-.9.95-3.17,1.17-2.59.24-4.92,1.11-4.92,4C85.5,19.93,87.35,21.25,89.85,21.25Zm1-2.51c-1.12,0-1.92-.52-1.92-1.52s.84-1.52,2.12-1.7a8.66,8.66,0,0,0,2.52-.59v1.39A2.51,2.51,0,0,1,90.89,18.74Z"/><path class="cls-1" d="M106,21.26c3.48,0,5.68-2.05,5.85-5.06h-3.43A2.32,2.32,0,0,1,106,18.38c-1.69,0-2.79-1.42-2.79-3.93s1.11-3.88,2.79-3.88a2.34,2.34,0,0,1,2.38,2.18h3.43c-.16-3-2.45-5-5.87-5-4,0-6.42,2.75-6.42,6.77S101.92,21.26,106,21.26Z"/><path class="cls-1" d="M120.09,21.26c3.23,0,5.42-1.58,5.93-4L122.66,17a2.46,2.46,0,0,1-2.51,1.52,2.85,2.85,0,0,1-3-3.16h8.92v-1c0-4.45-2.7-6.65-6.16-6.65-3.85,0-6.35,2.73-6.35,6.77S116.06,21.26,120.09,21.26Zm-2.91-8.13A2.76,2.76,0,0,1,120,10.45a2.58,2.58,0,0,1,2.68,2.68Z"/><path class="cls-1" d="M135.43,7.91H133V4.77h-3.63V7.91h-1.79v2.73h1.79v6.81c0,2.57,1.73,3.84,4.37,3.73a7.38,7.38,0,0,0,2-.34l-.57-2.7a5.46,5.46,0,0,1-.91.12c-.72,0-1.23-.28-1.23-1.28V10.64h2.47Z"/><path class="cls-1" d="M137.79,21h3.63V13.59a2.64,2.64,0,0,1,2.78-2.71,6.16,6.16,0,0,1,1.54.19V7.85a5.33,5.33,0,0,0-1.15-.13,3.18,3.18,0,0,0-3.14,2.47h-.14V7.91h-3.52Z"/><path class="cls-1" d="M151,21.25a4,4,0,0,0,3.83-2.07h.1V21h3.44V12.17c0-3.12-2.64-4.43-5.55-4.43-3.14,0-5.2,1.5-5.7,3.88l3.35.28a2.19,2.19,0,0,1,2.33-1.51c1.24,0,1.94.62,1.94,1.7v.05c0,.84-.89.95-3.17,1.17-2.59.24-4.92,1.11-4.92,4C146.62,19.93,148.47,21.25,151,21.25Zm1-2.51c-1.12,0-1.92-.52-1.92-1.52s.85-1.52,2.12-1.7a8.73,8.73,0,0,0,2.53-.59v1.39A2.52,2.52,0,0,1,152,18.74Z"/><path class="cls-1" d="M172.9,7.91h-3.85l-2.71,9.37h-.13l-2.72-9.37h-3.84L164.23,21h4.09Z"/><path class="cls-1" d="M180.27,21.26c3.24,0,5.43-1.58,5.94-4L182.85,17a2.47,2.47,0,0,1-2.52,1.52,2.85,2.85,0,0,1-3-3.16h8.91v-1c0-4.45-2.69-6.65-6.15-6.65-3.85,0-6.35,2.73-6.35,6.77S176.24,21.26,180.27,21.26Zm-2.9-8.13a2.76,2.76,0,0,1,2.82-2.68,2.58,2.58,0,0,1,2.68,2.68Z"/><path class="cls-1" d="M192.28,3.55h-3.63V21h3.63Z"/><path class="cls-1" d="M195.19,21h3.63V7.91h-3.63ZM197,6.22a1.91,1.91,0,0,0,2-1.84,2,2,0,0,0-3.93,0A1.91,1.91,0,0,0,197,6.22Z"/><path class="cls-1" d="M205.36,13.43a2.41,2.41,0,0,1,2.48-2.67,2.24,2.24,0,0,1,2.33,2.55V21h3.63V12.66c0-3.05-1.79-4.92-4.52-4.92a4,4,0,0,0-3.94,2.48h-.15V7.91h-3.46V21h3.63Z"/><path class="cls-1" d="M222.56,26.18c3.74,0,6.4-1.7,6.4-5.05V7.91h-3.61v2.2h-.13a3.89,3.89,0,0,0-3.74-2.37c-2.88,0-5.31,2.23-5.31,6.69s2.37,6.38,5.31,6.38a3.82,3.82,0,0,0,3.74-2.13h.15v2.4c0,1.8-1.15,2.49-2.73,2.49s-2.41-.69-2.71-1.49l-3.36.45C217,24.6,219,26.18,222.56,26.18Zm.07-8.09c-1.78,0-2.75-1.42-2.75-3.68s1-3.78,2.75-3.78,2.76,1.49,2.76,3.78S224.38,18.09,222.63,18.09Z"/><path class="cls-2" d="M236.57,21.22a2,2,0,1,0,0-4.07,2,2,0,1,0,0,4.07Z"/><path class="cls-2" d="M9.88.55,0,12.06l9.88,11.5,2.34-3.68L5.56,12.06l6.66-7.83Zm4.33,22.74h4.33L25.44.76H21.1ZM30.12.55,27.78,4.23l6.66,7.83-6.66,7.82,2.34,3.68L40,12.06Z"/></svg>